<?xml version="1.0" standalone="no"?>
<!DOCTYPE svg PUBLIC "-//W3C//DTD SVG 20010904//EN"
 "http://www.w3.org/TR/2001/REC-SVG-20010904/DTD/svg10.dtd">
<svg version="1.0" xmlns="http://www.w3.org/2000/svg"
 width="1000.000000pt" height="1000.000000pt" viewBox="0 0 1000.000000 1000.000000"
 preserveAspectRatio="xMidYMid meet">

<g transform="translate(0.000000,1000.000000) scale(0.100000,-0.100000)"
fill="#000000" stroke="none">
<path d="M0 5000 l0 -5000 5000 0 5000 0 0 5000 0 5000 -5000 0 -5000 0 0
-5000z m5202 1374 c-2 -2308 0 -2875 10 -2871 7 2 679 194 1493 427 1017 290
1498 432 1538 453 73 38 130 101 170 185 29 61 32 76 32 162 0 80 -4 104 -25
150 -17 38 -2485 3580 -3013 4324 l-20 29 69 -7 c144 -15 385 -58 560 -101
1027 -253 1914 -871 2503 -1745 402 -595 633 -1236 713 -1975 8 -70 13 -240
13 -405 0 -391 -31 -656 -120 -1016 -298 -1210 -1110 -2228 -2220 -2782 -395
-197 -799 -328 -1225 -396 -248 -40 -379 -50 -650 -51 -222 0 -255 2 -252 15
2 8 8 42 13 75 5 34 9 1296 9 2858 0 2750 0 2798 -19 2792 -11 -3 -630 -181
-1378 -394 -747 -214 -1398 -404 -1448 -421 -278 -99 -395 -209 -395 -373 0
-120 50 -234 210 -472 134 -201 2746 -3932 2803 -4004 l51 -64 -80 8 c-142 13
-375 54 -560 100 -1027 253 -1914 871 -2503 1745 -402 595 -633 1236 -713
1975 -17 157 -17 653 0 810 128 1179 687 2206 1593 2926 354 280 777 516 1199
668 325 116 706 201 1030 230 69 6 141 13 160 15 19 1 130 4 245 4 l210 2 -3
-2876z"/>
</g>
</svg>
